<mxfile host="www.draw.io" modified="2019-12-05T04:31:35.498Z" agent="Mozilla/5.0 (Windows NT 10.0; Win64; x64) AppleWebKit/537.36 (KHTML, like Gecko) Chrome/75.0.3770.100 Safari/537.36" etag="3SO5rbhEi_44PkSM5yew" version="12.3.6" type="github" pages="1">
  <diagram id="hPLD487_rrXhkc1wJRE6" name="第 1 页">
    <mxGraphModel dx="1406" dy="784" grid="1" gridSize="10" guides="1" tooltips="1" connect="1" arrows="1" fold="1" page="1" pageScale="1" pageWidth="827" pageHeight="1169" math="0" shadow="0">
      <root>
        <mxCell id="0"/>
        <mxCell id="1" parent="0"/>
        <mxCell id="sdnDIcvm3d-ZbP6BMYlY-1" value="李全强" style="rounded=0;whiteSpace=wrap;html=1;" parent="1" vertex="1">
          <mxGeometry x="180" y="250" width="80" height="40" as="geometry"/>
        </mxCell>
        <mxCell id="DdJCxJpUbqCv-p2f7Ykp-1" value="谷亚伟" style="rounded=0;whiteSpace=wrap;html=1;" vertex="1" parent="1">
          <mxGeometry x="310" y="200" width="80" height="40" as="geometry"/>
        </mxCell>
        <mxCell id="DdJCxJpUbqCv-p2f7Ykp-2" value="谷瑀" style="rounded=0;whiteSpace=wrap;html=1;" vertex="1" parent="1">
          <mxGeometry x="310" y="310" width="80" height="40" as="geometry"/>
        </mxCell>
        <mxCell id="DdJCxJpUbqCv-p2f7Ykp-3" value="郭明睿" style="rounded=0;whiteSpace=wrap;html=1;" vertex="1" parent="1">
          <mxGeometry x="310" y="380" width="80" height="40" as="geometry"/>
        </mxCell>
      </root>
    </mxGraphModel>
  </diagram>
</mxfile>
